<?xml version="1.0" encoding="utf-8"?>
<!-- Generator: Adobe Illustrator 19.1.0, SVG Export Plug-In . SVG Version: 6.00 Build 0)  -->
<svg version="1.1" id="Layer_1" xmlns="http://www.w3.org/2000/svg" xmlns:xlink="http://www.w3.org/1999/xlink" x="0px" y="0px"
	 viewBox="0 0 150 150" enable-background="new 0 0 150 150" xml:space="preserve">
<g id="international">
	<circle id="Background_9_" fill="#18345D" cx="75" cy="75" r="75"/>
	<g id="Shadow_9_">
		<defs>
			<circle id="SVGID_35_" cx="75" cy="75" r="75"/>
		</defs>
		<clipPath id="SVGID_2_">
			<use xlink:href="#SVGID_35_"  overflow="visible"/>
		</clipPath>
		<polygon clip-path="url(#SVGID_2_)" fill="#0D1E33" points="150,76.6 150,150 76.6,150 40.9,114.2 114.3,41 		"/>
	</g>
	<g id="Object_9_">
		<circle fill="#299BCA" cx="75" cy="75" r="52"/>
		<g>
			<path fill="#299BCA" d="M26,57.3c0.1-0.2,0.2-0.5,0.3-0.7C26.2,56.9,26.1,57.1,26,57.3z"/>
			<path fill="#299BCA" d="M23.7,66.1c0.2-0.9,0.3-1.8,0.5-2.6C24.1,64.3,23.9,65.2,23.7,66.1z"/>
			<path fill="#299BCA" d="M23.4,68.3c0.1-0.6,0.2-1.2,0.3-1.8C23.6,67.1,23.5,67.7,23.4,68.3z"/>
			<path fill="#299BCA" d="M24.3,63.3c0.2-0.8,0.4-1.7,0.6-2.5C24.7,61.6,24.5,62.4,24.3,63.3z"/>
			<path fill="#299BCA" d="M25.1,60.3c0.2-0.6,0.4-1.3,0.6-1.9C25.5,59,25.3,59.7,25.1,60.3z"/>
			<path fill="#89BE49" d="M117.2,76c0,0-0.3,0.2-0.5,0.3c-0.2,0.1-0.4,0.1-1,0.1s-0.4,0.1-0.7,0.1c-0.4,0-0.2,0.2-0.6,0.3
				c-0.3,0-0.6,0.1-0.9,0.1c-0.2,0-0.2-0.3-0.3-0.3c-0.1,0-0.2-0.1-0.2-0.2c0,0,0,0,0-0.1s0-0.3,0-0.5c0-0.2-0.1-0.3-0.3-0.5
				c-0.2-0.1-0.2-0.3-0.4-0.5c-0.2-0.3-0.6-0.6-1-0.7c-0.3-0.1,0-0.2-0.5-0.9c-0.5-0.6-0.2-0.2-0.3-0.7c0-0.2-0.1-0.3-0.2-0.3
				c-0.1-0.1-0.2-0.1-0.4-0.3c-0.4-0.4-0.3-0.2-0.4-0.4c-0.1-0.1,0-0.5,0-0.7c0-0.1-0.4-1-0.6-1.4c-0.1-0.4-0.4-0.2-0.3-0.3
				c0.1-0.1,0-0.1-0.1-0.3c-0.1-0.1-0.1-0.3-0.2-0.5c-0.1-0.6-0.4-1.1-0.7-1.5c-0.3-0.4-0.2-0.3-0.2-0.6s-0.6-0.9-0.6-1
				c0-0.2-0.2-0.5-0.1-0.4c0.1,0.1,0.3,0.5,0.4,0.7c0.1,0.2,0,0.1,0.5,0.5c0.5,0.4,0.1-0.1,0.2-0.5c0-0.1,0-0.3-0.1-0.5
				c-0.1-0.5-0.3-1.1-0.4-1.1s-0.2,0-0.5,0s-0.2-0.1-0.5-0.1c-0.3,0-0.2-0.2-0.7-0.2s-0.5,0.3-1,0.4c-0.4,0.1-1.1-0.5-1.3-0.5
				c-0.2,0-0.9,0-1,0c-0.1,0-0.2-0.1-0.3-0.2c-0.1,0-0.1,0-0.2,0c-0.2,0-0.7-0.3-0.7-0.3s-0.2-0.1-0.4-0.4c-0.2-0.3-0.6-0.1-0.9-0.1
				c-0.2,0-0.3,0.3-0.5,0.5c-0.2,0.1,0,0.6,0,0.9c0,0.3-0.2,0.1-0.3,0.2c-0.2,0.1-0.7,0-1-0.2c-0.2-0.2-0.1-0.1-0.3-0.3
				c-0.2-0.2-0.9-0.1-1-0.1c-0.2,0-0.2,0-0.3-0.4s-0.3-0.5-0.3-0.5s-0.7,0.2-1.1,0.2c-0.3,0-0.5-0.1-0.7-0.1c-0.1,0-0.2-0.1-0.3-0.2
				c-0.1-0.1-0.2-0.2-0.3-0.2c-0.2,0-0.3-0.2-0.3-0.2s-0.2-0.2-0.1-0.4c0-0.2,0.2-0.3,0.3-0.5c0.1-0.2-0.1-0.5-0.2-0.6
				c-0.1-0.1,0.3-0.5,0.3-0.5s-0.4,0.2-0.4,0c0-0.2-0.5-0.3-0.5-0.3c-0.2,0-0.4,0.1-0.5,0.1c0,0-0.4,0-0.5,0c-0.1,0-0.5,0-0.5,0
				c-0.2,0-0.5,0-0.7,0c0,0-0.4,0.1-1.3,0.1c-0.9,0.1-0.9,0-1.1,0c-0.1,0-0.4,0.1-0.4,0.1s-0.5,0-0.7,0.2c-0.2,0.1-0.2,0.2-0.4,0.2
				c-0.2,0-0.3,0-0.7,0.2c-0.3,0.1,0,0-0.1,0.1s-0.1,0.2-0.2,0.2h-0.1c-0.2-0.1-0.2-0.1-0.4-0.1c-0.1,0-0.3,0-0.4,0
				c-0.2,0-0.4,0-0.6,0c-0.2,0-0.5-0.2-0.5-0.2s-0.2-0.3-0.5-0.3c-0.3-0.1-0.3,0.1-0.3,0.1s0,0.2-0.1,0.3c0,0.1-0.2,0.3-0.2,0.5
				c0,0.2-0.4,0.2-0.4,0.3c-0.1,0.1-0.3,0.1-0.6,0.2c-0.3,0.1-0.5,0.1-0.7,0.3c-0.2,0.3-0.4,0.4-0.5,0.6c0,0.2-0.2,0.3-0.2,0.5
				c0,0.2,0.1,0.5,0.1,0.5c0,0.1,0,0.2,0,0.3c0,0-0.4,0.3-0.4,0.5c0,0.3-0.7,0.2-0.7,0.2s-0.5,0.2-0.7,0.4c-0.1,0.1-0.5,0.2-0.7,0.2
				c-0.1,0,0.1,0.5-0.7,0.9s-0.9,1-1,1.2c-0.1,0.2-0.1,0.2-0.3,0.4c-0.2,0.2-0.3,0.6-0.3,0.6s-0.5,0.5-0.7,0.9
				c-0.2,0.3-0.1,0.2-0.2,0.4c0,0.3,0.1,0.3,0.2,0.5c0.1,0.2,0,0.2,0.3,0.2c0.2,0.1,0,0.5,0,1c0,0.4,0,0.2,0,0.6
				c0,0.3-0.1,0.5-0.1,1c0,0.1,0,0.2,0,0.3c0,0.1,0,0.2-0.1,0.3c-0.1,0.1-0.5,0.7-0.5,0.7s-0.1,0.2-0.1,0.4c0,0.2,0,0.2,0,0.5
				c0,0.2,0,0-0.1,0.4c-0.1,0.4,0,0-0.1,0.3c-0.1,0.3,0.4,0.5,0.4,0.5s0.1,0.1,0.2,0.2c0.2,0.2,0.6,0.1,0.6,0.1
				c-0.1,0.2,0.2,0.4,0.3,0.4s0.1,0,0.1,0s0.2,0.3,0.4,0.4c0.2,0.1,0.1,0.2,0.4,0.4c0.2,0.1,0.3,0.3,0.4,0.5c0,0.1,0.1,0.2,0.1,0.2
				s0,0.4,0,0.5s0.3,0.3,0.5,0.4c0.1,0.1,0.2,0.2,0.6,0.3c0.1,0,0.1,0.1,0.2,0.1c0.2,0.1,0.2,0.2,0.3,0.3c0.2,0.2,1.1,0.7,1.1,0.7
				s0.5,0.3,1,0.5c0.4,0.3,0.5,0.1,0.5,0.1H80c0.1,0,0.3,0,0.4-0.1c0,0,0.5-0.2,0.6-0.2c0.1,0,0.3-0.2,0.9-0.2s0.6,0,1.1,0
				c0.4,0,0.2,0.1,0.4,0.2c0.2,0.1,0.3,0,0.4,0c0.1,0,0.1,0,0.1,0c0.2-0.1,0.3-0.1,0.5-0.2c0,0,0.4-0.1,0.5-0.2s0.4-0.2,0.6-0.2
				s0.3-0.2,0.5-0.2c0.3,0,0.3-0.2,0.3-0.2h0.1c0.2,0,0.5-0.1,0.6-0.1c0.3,0,0.5,0,1,0c0.3,0,0.3,0.1,0.9,0.4c0.5,0.3,0.1,0.3,0,0.6
				c-0.1,0.3,0.1,0.3,0.4,0.3s0.6-0.2,0.9-0.2c0.3,0,0.9-0.2,0.9-0.2c0.1,0.1,0.2,0.2,0.3,0.3c0,0,0.2,0.1,0.5,0.6
				c0.2,0.3,0.1,0.5,0,0.7c0,0.1-0.1,0.1-0.1,0.2c-0.1,0.1-0.1,0.4-0.2,0.6c0,0.1,0,0.2,0,0.3c0,0.2-0.3,0.4-0.4,1.1
				c-0.1,0.5,0.6,1.4,1.3,1.9c0.1,0.1,0.2,0.2,0.3,0.3c0.2,0.1,0.3,0.3,0.3,0.4c0.1,0.2,0.1,0.4,0.2,0.6c0.1,0.4,0.1,0.7,0.2,1.1
				c0.2,0.6,0.6,0.6,0.4,0.7c-0.2,0-0.1,1,0.1,1.1c0.2,0.1,0.3,1.1-0.3,1.9c-0.5,0.6-1.1,2.1-1.3,3.1c0,0.1-0.1,0.3-0.1,0.4
				c-0.1,0.9,1.3,3.5,1.3,3.5s0.2,1.8,0.2,2.6c-0.1,0.6,0.5,1.4,0.7,1.8c0,0.1,0.1,0.1,0.1,0.2c0.1,0.2,0,1,0.4,1.7
				c0.5,0.7-0.3,1.5,0.1,2.5c0.4,1,1,0.6,1.6,0.1c0.7-0.5,1.1,0,1.4-0.1c0.3,0,1.1-0.5,1.6-0.5c0.5,0,0.4-0.9,1.4-1.3
				c1-0.4,1.2-0.6,1.5-1.6c0.2-1,0.9-1.2,1.5-1.7c0.5-0.4,0.5-0.6,0.4-1.2c0-0.1,0-0.2-0.1-0.2c-0.2-0.7,1.4-1.3,1.4-1.3
				c0.3,0,0.5-0.4,0.6-1.3c0.1-0.9,0.1-1.4-0.3-1.9c-0.4-0.5,0.2-0.6,0.5-0.9s0.5-0.4,0.7-0.6c0.2-0.2,0.3-0.5,0.5-0.7
				c0.2-0.2,0.9-0.4,1.1-0.5c0.2-0.2,0.6-0.4,0.9-0.9c0.3-0.4,0.3-0.4,0.2-0.9c-0.1-0.4,0-0.4,0.1-1.3c0-0.9,0.1-1.1,0.1-1.1
				s-0.1-0.2-0.1-0.4c-0.1-0.3-0.2-0.7-0.2-1.1c-0.1-0.5,0-0.7-0.1-1c-0.1-0.2-0.2-0.4-0.2-1c0-0.5,0.3-0.2,0.3-0.6s0.1-0.5,0.3-0.7
				c0.2-0.1,0-0.6,0.2-0.7c0.2-0.1,0.5-0.4,0.6-0.6c0,0,0.4-0.4,0.5-0.5c0.1-0.1,0.5-0.7,0.7-1c0.1-0.2,0.6-0.6,0.7-0.7
				c0.1-0.1,0.5-0.1,0.5-0.3c0.1-0.1,0.6-0.9,0.7-1c0.2-0.1,0.5-0.6,0.7-1c0.1-0.3,0.2-0.7,0.6-1.5c0.4-0.7,0.5-2.4,0.7-2.7
				C117.7,75.9,117.2,76,117.2,76z M79.4,65.2c-0.1,0-0.2,0-0.2,0S79.3,65.2,79.4,65.2c0.1,0,0.1,0,0.1,0S79.5,65.2,79.4,65.2z"/>
			<path fill="#89BE49" d="M37.9,45c-0.1,0.2-0.5,0.9-0.6,1c-0.1,0.1-0.1,0.7-0.2,0.9s-0.4,0.7-0.6,0.9c-0.2,0.2-0.4,0.6-0.4,0.6
				c0.1,0.1,0.1,0.2,0.2,0.4c0.1-0.1,0.3-0.1,0.4-0.2c0.1-0.2,0.2-0.3,0.3-0.5c0.2-0.1,0.3-0.1,0.5-0.2c0-0.1-0.1-0.3-0.1-0.4
				c0-0.2,0-0.3,0-0.5c0.4-0.3,0.5-0.5,0.6-0.7c0,0,0.3-0.1,0.4-0.2c0.2-0.1,0.5-0.9,0.6-1S37.9,45,37.9,45z"/>
			<path fill="#89BE49" d="M48,45.3c-0.7,0-0.6-0.1-1.2-0.2c-0.5,0-1,0.3-1.1,0.1c-0.1-0.2,0.9-0.6,0.9-0.6s0.6-0.6,0.1-0.4
				c-0.5,0.2-1.5,0.2-1,0.1c0.4-0.2-0.3-0.2-0.3-0.2c-0.1-0.1-0.1-0.2-0.2-0.3c0,0-0.7,0.1-0.5-0.1c0.1-0.1-0.6,0-0.4-0.1
				c0.1-0.1,0.2-0.4,0.1-0.4c-0.1,0-0.9-0.1-1.3,0.2c-0.4,0.2-0.1,0.7,0.1,0.6c0.2-0.1,0.4,0,0.4,0s-0.4,0.2-0.5,0.3
				c-0.1,0-0.9,0.4-0.9,0.4c0.1-0.1,0.2-0.2,0.2-0.4c0.1-0.1,0.1-0.3,0.2-0.4c0-0.1,0-0.2,0-0.3c-0.2,0.1-0.4,0.2-0.6,0.3
				c-0.2,0.1-0.4,0.2-0.5,0.3c-0.1,0.1-0.2,0.2-0.3,0.3c0.1-0.2,0.1-0.4,0.2-0.6c-0.1,0.2-0.3,0.4-0.4,0.5c-0.1,0.1,0.1,1.5,0,1.5
				c-0.1,0.1-0.5-0.4-0.5-0.4s0.2-0.4,0.3-0.5c0-0.2-0.4-0.4-0.4-0.4c-0.2,0.3-0.5,0.6-0.7,1c-0.1,0.2-0.3,0.3-0.4,0.5
				c0,0.2,0,0.3,0.1,0.5c0.2-0.1,0.4-0.1,0.6-0.2c-0.2,0.2-0.4,0.3-0.6,0.5c0,0.1,0.1,0.2,0.1,0.3c0.2-0.1,0.3-0.1,0.5-0.2
				c0,0,0.9-0.1,1.4-0.4c0.6-0.2,1.2-0.5,1.2-0.5c0.1-0.1,0.2-0.3,0.3-0.4c0,0,0.9,0,1,0.3s0.6,0.3,0.7,0.5c0,0.3-0.1,0.6-0.4,0.9
				c-0.3,0.2-0.4,1-0.4,1s0,0.3-0.2,0.4c-0.2,0.1-0.7,0.1-0.9,0.2c-0.2,0.1-0.5,0.4-0.5,0.4s-0.5,1-0.1,0.7s0.2-0.2,0.5-0.3
				c0.2-0.1,1.2-0.9,1.4-0.1c0.2,0.6,0.7,0.5,1,0.4c0.2,0,0.9,0.1,0.9-0.1c0-0.1,0.5-0.3,0-0.6c-0.5-0.3-0.3-0.6,0-0.4
				c0.3,0.2,0.6,0.3,0.9-0.1c0.1-0.5,0.6-0.6,0.1-1.1c-0.5-0.3-0.5-0.5-0.5-0.5c-0.5,0.1-0.3-0.3-0.1-0.4c0.2-0.1,0.7,0.1,0.9,0.3
				c0.1,0.2,0.2,0.3,0.4-0.1c0.2-0.4,0-0.5,0.6-0.9C48.5,45.7,48.7,45.4,48,45.3z"/>
			<path fill="#89BE49" d="M47.5,56.1c-0.1,0.2-0.3,0.4-0.5,0.7c-0.1,0.4-0.3,0.7-0.5,0.9c-0.2,0.2-0.4,1.2-0.4,1.2s0,0,0.9-0.3
				s1.3-0.7,1.3-0.7c0,0.1,0.1,0.2,0.1,0.3c0.1,0,0.3,0,0.4,0.1c0,0,0.2-0.1,0.4-0.3c0.1-0.2,0.1-0.4,0.1-0.4l-0.1-0.1
				c0-0.1-0.1-0.2-0.1-0.4c0-0.1,0-0.3,0-0.4c0,0-0.4,0-0.7,0.2c-0.2,0.2-0.4,0.1-0.4,0.1c0.1-0.1,0.1-0.2,0.2-0.4
				c0,0-0.4,0-0.5,0.1c0.3-0.2,1.3-1.2,0.7-1c0,0,0,0,0,0C48.2,55.7,48,55.8,47.5,56.1z"/>
			<path fill="#89BE49" d="M37.2,42.8c0.2-0.1,0.3-0.2,0.5-0.2c0,0.1,0.1,0.1,0.1,0.2c0.1,0,0.2-0.1,0.3-0.1c0-0.2,0-0.3-0.1-0.5
				c-0.1,0-0.3-0.1-0.4-0.1c-0.1,0.1-0.2,0.1-0.4,0.2c-0.2,0.1-0.4,0.3-0.6,0.4c0.1,0,0.3,0,0.4,0C37.2,42.7,37.2,42.7,37.2,42.8z"
				/>
			<path fill="#89BE49" d="M37,45c0.2-0.1,0.5,0,0.5-0.2c0-0.2,0.1-0.4,0.1-0.4c0-0.1,0-0.3,0.1-0.4c-0.2,0-0.4,0.1-0.6,0.1
				c0,0.1,0,0.2,0,0.3c0,0-0.1,0.5-0.1,0.4c-0.1-0.2-0.2-0.6-0.2-0.5c-0.1,0.1-0.3,0.6-0.3,0.6c0.1,0.1,0.1,0.3,0.2,0.4
				C36.5,45.2,36.8,45.1,37,45z"/>
			<path fill="#89BE49" d="M36,47.4c0,0,0.5-0.3,0.6-0.4c0.2-0.1-0.1-0.7-0.1-0.7c0.1,0,0.2-0.1,0.3-0.1c0,0,0.3-0.6,0.2-0.9
				s-0.5,0.4-0.6,0.4c-0.2,0.1-0.5,0.2-0.5,0.2c-0.1,0.1-0.2,0.2-0.2,0.3c0,0.2,0,0.3,0,0.5c0,0,0,0-0.3-0.1
				c-0.3,0.1-0.4,0.7-0.4,0.7c0.1,0,0.3,0.1,0.4,0.1c0,0-0.1,0.5,0.3,0.3C36.1,47.7,36,47.4,36,47.4z"/>
			<path fill="#89BE49" d="M66.2,35.9C66.2,35.8,66.2,35.8,66.2,35.9L66.2,35.9z"/>
			<path fill="#89BE49" d="M69.7,27.7c-0.9,0.2-1.5,0.5-1.6,0.6c-0.2,0.1-1,0.4-1.1,0.4s0.4-0.3,0-0.4h-0.1l-0.2-0.2h-0.3
				C66.3,28,66.1,28,66,27.9l-0.4,0.2c-0.1,0-0.3,0-0.4,0s-0.4,0-0.4,0c-0.1,0.1-0.2,0.2-0.3,0.3l-0.1-0.1c-0.1,0-0.2,0.1-0.3,0.1
				s-0.3,0.1-0.4,0.1c-0.1,0.1-0.2,0.1-0.2,0.2c-0.1,0-0.2,0-0.2,0.1c-0.1,0.1-0.2,0.1-0.3,0.2c-0.1,0.1-0.3,0.1-0.4,0.2l-0.1-0.1
				c-0.1,0-0.2,0-0.4,0.1c-0.1,0.1-0.2,0.2-0.4,0.3c-0.1,0.1-0.1,0.1-0.2,0.2c-0.1,0-0.1,0-0.2-0.1c-0.2,0.1-0.3,0.1-0.5,0.2
				c0,0.1-0.1,0.2-0.1,0.2s-0.1,0-0.1-0.1c-0.1,0-0.3,0.1-0.4,0.1c-0.1,0.1-0.1,0.2-0.2,0.2c-0.1,0.1-0.2,0.2-0.3,0.3
				c-0.1,0-0.1,0-0.2,0c-0.1,0.1-0.3,0.1-0.4,0.2c-0.1,0-0.1,0-0.2,0c-0.1,0.1-0.2,0.3-0.3,0.4c-0.1,0-0.1,0-0.2,0.1
				c-0.1,0.1-0.1,0.1-0.2,0.2c-0.1,0-0.2,0.1-0.3,0.1c0,0-0.1,0-0.1-0.1c-0.1,0.1-0.2,0.2-0.3,0.3s-0.3,0.2-0.4,0.3
				c-0.1,0.2-0.2,0.3-0.3,0.5c-0.1,0.1-0.3,0.2-0.4,0.2c0,0,0.3-0.3-0.5,0c-0.9,0.3-1.4,0.5-1.6,0.6c-0.2,0.1-0.9,0.6-1,0.7
				c0,0.1-0.6,0.4-0.6,0.4s-2.4,1.6-1.8,1.5c0.5-0.1,0.7,0.2,0.1,0.4c-0.6,0.3-1.2,1-2,1.4c-0.9,0.3-1.3,1.1-0.5,0.7
				c0.7-0.3,1.6-0.6,1.6-0.6s-1.9,1.4-1.1,1.3c0.9-0.1,0.7,0,1.4-0.2c0.6-0.3,0.7-0.9,1.5-0.7c0.7,0.1,0.9-0.1,1,0.4
				c0.1,0.4,0.4,0.9,0.2,1.3c-0.2,0.4-0.7,0.7-0.7,0.7s-0.1,0.5,0.4,0.2c0.5-0.3,0.9-0.9,0.9-0.6c0.1,0.2,0.5,0.6,0.5,0.6
				s-0.5,0-0.9,0.1c-0.3,0.1-0.6,0.4-0.3,0.5c0.3,0,1-0.1,1.1-0.2c0.1,0-0.1,0.5-0.3,0.6c-0.2,0.1-1,0.7-1,0.7s-0.6,0.7-0.5,1.5
				c0.2,0.7,0.3,0.9,0.4,1.3s0,1.3,0.3,1.4c0.3,0.1,0.3,0.4,0.7,0.3s0.7-0.2,0.9-0.3c0.1,0,0.2,0.1,0.3,0.2c0.2,0.1,0.3,0,0.9-0.2
				c0.1-0.2,0.3-0.3,0.4-0.5c0.2-0.3,0.4-1.1,0.4-1.1s0.2-0.4,0.2-0.6c-0.1-0.2,0,0.1,0.5-0.5s0.6-0.7,0.5-1.1s-0.2-0.4-0.1-0.4
				c0.1-0.1,0.3-0.4,0.7-0.6c0.5-0.2,0.3,0.2,1.2-0.6c1-0.9,1-0.9,1.4-1.4c0.4-0.5,0-0.4,0.6-0.9c0.6-0.4,0.5-0.3,1.2-0.7
				c0.6-0.4,0.9-0.7,1.2-0.9c0.3-0.1,1.3-1,2.1-1.5c0.4-0.3,0.6-0.4,0.7-0.5c0,0-0.1,0-0.1,0c-0.1,0.1-1.5,0.3-1.8,0.4
				c-0.3,0.1,0.2-0.5,0.2-0.5s0.4-0.4,0.5-0.2c0.1,0.2,0.2,0.3,0.9,0.1c0.5-0.2,1-0.4,0.5-0.6c-0.4-0.2-0.3-0.2-0.6-0.3
				c-0.2-0.1-0.3-0.1-0.6-0.1s-0.7-0.1-0.6-0.1c0.1-0.1,0.5-0.3,1-0.5c0.5-0.2,0.6-0.2,0.9-0.3c0.2-0.1,0.6,0,0.6-0.2
				c0-0.1-0.2-0.1-0.3-0.1c0.2-0.1,0.5-0.2,0.7-0.4c0.3-0.3,0.6-0.6,0.2-0.5c-0.4,0.2,0.3-0.4,0.3-0.4s0.2-0.5-0.4-0.3
				c-0.6,0.2-1.2,0-0.4-0.2c0.7-0.2,1.2-0.5,1.1-0.5c-0.2,0-1.1,0-1.1,0s-0.1-0.2,1-0.9c1-0.6,1.1-1.2,1.4-1.3
				c0.2-0.1,0.4-0.3,0.9-0.4c0.3-0.1,0.5-0.4,0.5-0.4S70.5,27.4,69.7,27.7z"/>
			<path fill="#89BE49" d="M68.6,37c-0.4,0.3-0.4,0.2-0.7,0.3c-0.3,0.1-0.5,0.2-0.7,0.4c-0.2,0.2-0.4,0.3-0.7,0.4
				c-0.2,0.1-0.1-0.1-0.4-0.2c-0.2-0.1-1.3,0.9-1.1,1c0.2,0.1,0.5-0.2,1-0.4c0.4-0.2,0,0.2-0.1,0.2c-0.1,0-0.6,0.6-0.6,0.6
				c0.3,0,0.5-0.1,0.9-0.2c-0.1,0.2-0.2,0.3-0.3,0.5c0,0,0.6-0.3,0.7-0.2c0.2,0.1,0.6,0,1-0.1s0.6-0.2,0.6-0.4c0-0.1,0.6-0.6,1.3-1
				c0.5-0.3,0.9-1.1,0.9-1.1C69.9,36.5,68.9,36.6,68.6,37z"/>
			<path fill="#89BE49" d="M38.5,44.5c0.1,0,0.4-0.2,0.4-0.2s0-0.5-0.2-0.5c-0.1,0.1-0.4,0.3-0.4,0.3c-0.1,0.2-0.2,0.4-0.3,0.6
				C37.9,44.8,38.4,44.5,38.5,44.5z"/>
			<path fill="#89BE49" d="M37.6,76.2C37.8,76.3,38,76,38,76s0.2,0.2,0.2,0.3c-0.1,0.1,0.3,0,0.3,0s0.1,0.2,0,0.3
				c-0.1,0.2,1,0.1,1.4-0.3c0,0-0.7-0.3-1.7-0.6c-1-0.2-1,0-1.3-0.2c-0.2-0.1-0.2-0.1-0.6,0s-0.6,0.5-0.7,0.7c-0.1,0.2,0,0.3,0,0.3
				c0.1,0,0.6-0.5,0.9-0.5c0.2,0,0.2,0.2,0.4,0.2C37.1,76.1,37.4,76.1,37.6,76.2z"/>
			<path fill="#89BE49" d="M67.1,90.4c0.3-0.3,0.6-0.7,0.3-1.4c-0.3-1.2-0.5-1.5-0.9-1.8c-0.3-0.4,0.1-0.7-0.4-0.7
				c-0.5,0.1-0.3,0.3-1.2,0s-1.3-0.5-1.5-0.6c-0.2-0.1-1-0.5-1.3-0.5s-0.4,0-0.9,0.1c-0.3,0-0.6,0.2-0.9,0.1
				c-0.3-0.1-0.9-0.4-1.3,0.2c-0.1,0.1-0.1,0.2-0.1,0.2c0-0.2-0.1-0.4-0.1-0.6c-0.1-0.2-0.1-0.2-0.7-0.4c-0.6-0.1-1-0.2-1.3-0.3
				c-0.3,0-0.5,0.1-0.6,0.3c0,0.1-0.1,0.1-0.1,0.2c0.1-0.1,0.1-0.3,0-0.4c-0.2-0.3-0.4-0.2-0.6-0.2c-0.2,0-0.7,0.1-0.7,0.1
				s-0.4-0.2-0.1-0.4c0.3-0.2,0.3-0.2,0.2-0.5c-0.1-0.2,0.1-0.1-0.4-0.2C54,83.1,54.2,83,54,82.8c-0.2-0.2-0.5-0.6-0.5-0.6
				c-0.1,0-0.2-0.1-0.2-0.1h-0.1c0,0-1.2-0.4-1.4-0.4h-0.1c-0.2,0-0.6-0.1-1,0c-0.4,0.1-0.6,0.1-0.6,0.1s0,0-0.1,0
				c-0.2-0.1-0.6-0.3-0.7-0.3c-0.2,0.1-0.6-0.9-1.1-0.7c-0.3,0.1-0.7,0-0.7,0s0.3-0.3,0.2-0.4c-0.2-0.1-0.2,0-0.5-0.1
				c-0.3-0.1-1-0.1-0.5-0.2c0.4-0.1,0.3-0.1,0.3-0.1c-0.3,0-0.7,0.1-1.1,0.1c0,0-0.1,0.3-0.3,0.4c-0.2,0.1-0.4-0.2-0.7-0.1
				c-0.3,0.1-0.3,0.2-0.6,0.3c-0.3,0.1-0.3-0.2-0.3-0.2s-0.1-0.2-0.3-0.2c-0.1,0-0.5,0.1-0.7,0.2c-0.1,0-0.6,0.5-0.3,0.7
				c0.3,0.2,0.5,0.4,0.3,0.5c-0.2,0.1-0.5,0-0.5-0.2c-0.1-0.3,0.2-0.5,0-0.7c-0.1-0.1-0.1-0.1-0.2-0.2c0,0,0-0.1,0.1-0.1
				c0.1-0.1,0.2-0.2,0.2-0.2s0.1-0.3-0.1-0.1c-0.3,0.1-0.3,0.1-0.4,0.3c-0.1,0.2-0.1,0.3-0.3,0.4c-0.2,0.1-0.2,0.2-0.2,0.3
				S41,81.3,41,81.3s-0.2-0.4-0.3-0.2c-0.1,0.2-0.4,0.3-0.4,0.5c0.1,0.2,0.2,0.6,0.2,0.6s-0.6,0.2-0.5,0.5c0.1,0.3-0.2,0.6-0.2,0.6
				s0.3-0.7-0.2-1c-0.4-0.1-0.4-0.2-0.7-0.1c-0.3,0.1-0.2,0.4-0.5,0.5c-0.1,0-0.1,0.1-0.2,0.1c-0.1,0.1-0.2,0.1-0.5-0.1
				c-0.4-0.2-0.5-0.2-0.5-0.4c-0.1,0-0.3-0.1-0.3-0.1c-0.1,0-0.1,0-0.3,0c-0.2,0.1-0.4,0-0.5,0.1c0.1,0.2,0.2,0.7,0.6,0.7
				c0.5,0,0.4,0,0.6,0.2c0.2,0.2,0.3,0.2,0.5,0.1c0.2-0.1,0.6,0,0.6,0.2c0.1,0.2,0.5,0.2,0.4-0.1c-0.1-0.1-0.2-0.2-0.2-0.2
				s0,0,0.1-0.1c0.1-0.2,0.1-0.3,0.2-0.4s0.3-0.3,0.5-0.1c0.1,0.2,0.2,0.4,0.2,0.5c0,0.1,0.3,0.2,0.3,0.3c0.1,0.1,0.4,1.5,0.4,1.6
				c0,0.1,0.2,0.5-0.1,0.7c-0.2,0.2-0.4,0.2-0.3,0.4c0.1,0.2,0.2,0.1,0.1,0.2S39.9,87,39.7,87c-0.1,0-0.4,0-0.2,0.4
				c0.2,0.3,0,0.4,0,0.5s-0.1,0.2,0,0.5c0.1,0.3,0.2,0.7,0.5,0.6c0.3-0.2,0.1,0.2,0.1,0.4c0,0.1-0.1,0.1-0.1,0.2
				c-0.1,0.1-0.1,0.3,0.1,1.1c0,0.1-0.1,0.5,0.3,0.6c0.4,0,0.6,0.1,1.1,0.6c0.4,0.4,0.7,0.9,1,1.5c0.2,0.5,0.9,1,1.1,1.2
				c0.2,0.2,0.4,0.5,0.4,0.5s0.2,0.4,0.7,0.7c0.5,0.3,1,0.4,1.3,0.6c0.3,0.1,0.9,0,1.1,0.2c0.3,0.3,0.6,0.6,0.9,0.6h0.1
				c0.1,0.1,0.3,0.2,0.3,0.1c0-0.1,1.1,2.5,1.4,3.3c0.3,0.9,1.4,3.5,1.4,3.6c0,0,0.7,1.4,0.4,1.3c-0.3-0.1,0.3,0.4,0.4,0.7
				c0.1,0.3,0.2,0.2,0.4,0.9c0.2,0.6,0.5,1.5,0.6,1.8c0.1,0.3,0.5,1.7,0.5,1.7s-0.4,0,0,0.5c0.4,0.5,1,0.6,1.1,1.1
				c0.1,0.4-0.1,0.9,0.3,1.3c0.4,0.3,0.4,1,0.6,0.9c0.2,0,0.1,0.3,0.3,0.9c0.2,0.5,0.4,0.6,0.5,0.5c0.1-0.2-0.2-0.5-0.3-1
				s-0.3-0.7-0.1-0.6c0.2,0.1,0.4,0.5,0.5,0.7c0,0.1,0.2,0.5,0.4,1c0.2,0.4,0.3,0.9,0.3,0.9c0,0.1,0,0.3-0.1,0.4
				c0,0-0.3-0.1-0.2,0.1c0.1,0.2,0.1,0.9,0.1,0.9s0.4-0.1,0.6-0.1c0.2,0,0.4-0.1,0.4,0s0,0.6-0.1,0.7c-0.1,0-0.1,0.7-0.1,0.7
				s0.5,0.6,0.7,0.7c0.2,0.1,0.7,0.5,0.9,0.7c0,0,0.1,0.1,0.2,0.3c0.4,0.5,0.7,0.7,0.7,0.7s0.1-0.1,0.3,0.1c0.2,0.2,0.5,0.3,0.5,0.3
				s0.1,0.2,0.2,0.2s0.4,0.1,0.4,0.1s0.7,0.4,0.9,0.4s0.5-0.2,0.7-0.1c0.2,0.1,0.6,0.1,0.9,0c0.1,0,0.6-0.2,0.7-0.2h0.1
				c0,0,0.2-0.2,0.3-0.2c0.1,0,0.3-0.1,0.4-0.1c0.1,0,0.4-0.1,0.4-0.1c0.1-0.1,0.3-0.2,0.4-0.4c-0.1,0-1.5,0.5-2.6-0.3
				c-1.1-1-0.5-0.6-1.2-1.1c-0.6-0.4-1.1-0.6-0.7-0.9c0.3-0.2,0.3,0,0.2-0.5c-0.1-0.5-0.2-0.7,0-0.9c0.2-0.1,0.3,0.2,0.1-0.5
				c-0.2-0.7-0.4-0.6-0.7-0.6c-0.3,0.1-0.6,0-1-0.4c-0.3-0.4-0.3-0.9,0-1.1c0.3-0.1,0.3-0.5,0.2-0.7c-0.1-0.2-0.4-0.1-0.2-0.6
				c0.2-0.4,0.5-0.5,0.1-0.7c-0.4-0.1-0.9,0-1-0.2c-0.1-0.2-1.1-0.7-0.3-0.9c0.6-0.1,1.1,0.2,1.2-0.1c0.1-0.3,0.2-0.4-0.1-0.7
				s-1-0.7-0.6-0.9c0.3,0,1.8,0,2-0.6c0.2-0.5,0.2-0.9,0.1-1.2c-0.1-0.4-0.3-0.2-0.6-0.6c-0.3-0.3,0.3-0.5-0.2-0.6
				c-0.5-0.2-1-0.1-1.1-0.3c0-0.1,0-0.1,0-0.1c0.1,0,0.3,0,0.7,0c0.6,0,0.9,0.4,1.3,0.2c0.5-0.2,0.9-0.2,1-0.5
				c0.1-0.3-0.1-1.3-0.1-1.7c-0.1-0.4,0-1,0-1s0.3,0.1,0.3,0.5c0,0.4,0.1,0,0.2-0.5c0-0.6-0.1-0.7,0.2-1.2c0.3-0.3,0.3-0.4-0.1-0.9
				c-0.4-0.4-1.1-0.9-0.9-1.2c0.2-0.3,0.6-1.1,0.7-1.3c0.2-0.2,0.9-1,1.3-1c0.4,0,1.5,0,1.5-0.1c0-0.1-0.4-0.4,0-0.4
				s0.4-0.2,0.4-0.2c0-0.3-0.1-0.5-0.1-0.9c0,0,0.2-0.5,0.1-0.7c-0.1-0.2-0.1-0.5-0.3-0.9c-0.1-0.3,0.2-0.3,0.1-0.7
				s-0.7-2.2-1.1-2.9c-0.2-0.6,0.2-0.3,0.4-0.1c0.2,0.1-0.1-0.1,0.1-0.5c0.1-0.4,0-0.5,0-0.7C66.6,90.8,66.8,90.7,67.1,90.4z
				 M59.5,121.2C59.5,121.2,59.6,121.2,59.5,121.2C59.6,121.2,59.5,121.2,59.5,121.2z"/>
			<path fill="#89BE49" d="M115.4,91.5c0,0-0.1,0.6-0.1,0.9c0,0.2-0.1,0.2-0.3,0.5c-0.2,0.3-0.4,0.4-0.6,0.7c-0.2,0.3-0.7,0.3-1,0.5
				c-0.2,0.2-0.7,0.4-1,0.7s-0.1,0.3-0.2,1c0,0.5,0.1,0.6,0.2,1.1c0.2,0.5-0.2,0.3-0.5,0.9c-0.3,0.5-0.3,0.4-0.6,1
				c-0.2,0.5,0.1,0.5,0.2,0.7c0.1,0.2,0,0.4-0.1,0.9s0,0.3,0.4,0.9s0.9,0,1.1,0c0.2,0,0.6-0.4,0.6-0.4c0.6-1.7,1.3-3.4,1.8-5v-0.1
				c0-0.5-0.1-0.7,0.3-0.7c0.3,0,0.1-0.3,0.1-0.3s-0.1-0.1-0.1-0.5s0.3,0.1,0.5,0.1c0.1-0.1,0.1-0.5,0.1-1.2
				c0.1-0.9,0.1-0.6-0.4-1.3C115.4,91.1,115.4,91.5,115.4,91.5z"/>
			<path fill="#89BE49" d="M32.4,46.8c-0.3,0.2-0.6,0.4-0.5,0.4s0.6-0.3,1-0.4s0.5-0.3,0.7-0.4c0.2-0.1,1-0.3,1-0.3
				c0.2-0.3,0.5-0.6,0.7-1c-0.2,0.1-0.5,0.1-0.7,0.2c0,0,0-0.4-0.2-0.3c-0.2,0.1-0.4,0.6-0.4,0.9S33,46,33,46
				c0.1-0.1,0.3-0.2,0.4-0.3c-0.3,0-0.6,0-0.9,0c0.1-0.1,0.2-0.2,0.3-0.3c0,0-0.4,0.3-0.5,0.3c-0.1-0.1,0.1-0.5,0.1-0.5
				s-0.1,0.1-0.2,0.1c-0.4,0.5-0.7,1.1-1.1,1.6c0.1,0,0.2,0,0.2-0.1C31.6,46.8,32.7,46.6,32.4,46.8z"/>
			<path fill="#89BE49" d="M30.8,48.6c0-0.3,0.1-0.4,0.2-0.5c0,0-0.2-0.2-0.3-0.3c-0.2,0.4-0.4,0.7-0.6,1.1
				C30.4,48.7,30.5,48.6,30.8,48.6z"/>
			<path fill="#89BE49" d="M126.8,70.3c0-0.2,0-0.5-0.1-0.7c-0.1,0-0.2,0-0.4,0C126.4,69.8,126.6,70,126.8,70.3z"/>
			<path fill="#89BE49" d="M24.9,60.8c0-0.2,0.1-0.3,0.1-0.5C25,60.4,25,60.6,24.9,60.8z"/>
			<path fill="#89BE49" d="M25.7,58.4c0.1-0.4,0.2-0.7,0.4-1.1C25.9,57.7,25.8,58.1,25.7,58.4z"/>
			<path fill="#89BE49" d="M24.3,63.4c0-0.1,0-0.1,0-0.2C24.3,63.3,24.3,63.4,24.3,63.4z"/>
			<path fill="#89BE49" d="M23.7,66.4c0-0.1,0-0.3,0.1-0.4C23.7,66.2,23.7,66.3,23.7,66.4z"/>
			<path fill="#89BE49" d="M35.8,82.2C35.8,82.3,35.9,82.3,35.8,82.2L35.8,82.2z"/>
			<path fill="#89BE49" d="M43.4,61.4c0.1-0.1,0.3-0.2,0.3-0.3C43.8,61,43.6,61.2,43.4,61.4z"/>
			<path fill="#89BE49" d="M23.2,76.4c0.1,0.3,0.2,0.7,0.4,0.9c0.2,0.1,0.4,0,0.5,0.2c0.1,0.2,0.4,0.4,0.5,0.4c0.2,0.1,0,0,0.1,0.3
				s0.3,0,0.5,0.3c0.3,0.3,1.1,0.5,1.2,1c0.1,0.5,0.2,0.5,0.1,0.7c-0.1,0.2-0.2,0.4,0,0.6c0.2,0.1,1.1,0.6,1.3,0.5
				c0.2,0,0.6-0.1,0.6-0.1s0.9,0.3,1.2,0.4s0.2,0.1,0.6,0.1c0.3,0,0.9,0.2,1-0.1c0.1-0.2,0.2-0.5,0.4-0.5c0.2,0,0.9,0.5,1,0.5
				c0,0,0.1,0,0.1,0.1c0.1,0.1,0.4,0.1,0.6,0.2c0.2,0,0.3,0,0.5,0c0.4-0.1,0.2,0,0.6-0.1c0.1,0,0.2,0,0.2,0s0,0,0.1,0.1
				c0.1,0.1,0,0.3,0.2,0.3c0.1-0.3,0.4-0.2,0.6-0.2c-0.1-0.1-0.2-0.3-0.1-0.3s0.1,0,0.3,0.1c0.2,0.1,0.2,0.2,0.4,0.2
				c0.2,0.1,0.3,0.1,0.3-0.1c-0.1-0.2-0.1-0.3,0-0.5c0.1-0.3-0.1-0.6-0.1-0.7c0-0.1,0-0.4,0-0.4c0-0.1-0.1-0.3-0.2-0.4
				c-0.1-0.1-0.2-0.2-0.2-0.2s-0.2-0.1-0.7,0c-0.5,0.2-0.6,0.4-0.9,0.3h-0.1c-0.2,0-0.3,0.2-0.3,0.1V80c0.1-0.3,0.1-0.1,0.2-0.5
				c0.1-0.4,0-0.3,0.1-0.6c0-0.2,0.1-0.3,0.1-0.3c0-0.1,0-0.1-0.1-0.3c-0.1-0.3-0.1-0.4,0-0.6c0.1-0.2,0.3-0.6-0.2-0.5
				c-0.5,0.2-1.4,0.4-1.3,0.7c0.1,0.4,0.1,0.6-0.1,0.9c-0.2,0.2-0.2,0.3-0.1,0.4s0.1,0.3-0.2,0.1c-0.3-0.1-0.4,0.3-0.9,0.4
				c-0.4,0.1-0.2-0.3-0.5-0.2c-0.3,0.1-0.2,0.1-0.4-0.1c-0.2-0.2-0.5-0.3-0.6-0.7c-0.1-0.4-0.2-1.3-0.2-1.7
				c-0.1-0.4,0.1-0.5,0.1-0.6v-0.1c0-0.2,0-0.3,0-0.5c0-0.2-0.1-0.4,0.3-0.7c0.4-0.3,0.3-0.1,0.4-0.4s-0.3-0.3,0.3-0.4
				c0.6-0.2,0.6-0.2,0.9-0.2c0.2-0.1,0.3-0.2,0.5-0.1c0.2,0.1,0.3,0.2,0.5,0c0.2-0.2,0.1-0.4,0.1-0.4s-0.3-0.2,0.5-0.3
				c0.7,0,0.6-0.5,1-0.3c0.2,0.3,0.4,0.4,0.5,0.2c0.1-0.2,0.1-0.5,0.3-0.3c0.2,0.2,0.6,0.2,0.5,0.4c0,0.2,0,0.2,0.1,0.5
				s0.2,0.6,0.4,0.9c0.2,0.3,0.5,0.6,0.6,0.2c0.1-0.5,0.2-0.3,0-1c-0.2-0.6-0.4-1.2-0.4-1.3s-0.4-0.6,0.1-1.3
				c0.5-0.7,0.5-0.9,0.9-1.2c0.3-0.2,0.3-0.1,0.5-0.4c0.1-0.3,0.1-0.4,0.2-0.4c0.1,0,0-0.1,0.1-0.2c0.1,0,0.2-0.2,0.2-0.2
				c0-0.1,0-0.2-0.1-0.3c-0.1,0-0.2,0.1-0.3,0.1c0.1-0.1,0.2-0.2,0.3-0.3c0-0.1-0.1-0.2-0.1-0.2s-0.3,0.1-0.3,0
				c0.1,0,0.3-0.2,0.3-0.3s-0.1-0.5-0.1-0.5s-0.1-1,0.1-0.2c0.2,0.7,0.1,1.1,0.3,0.5c0.2-0.5,0.1-0.7,0.1-0.7c0.1,0,0.2,0,0.2,0
				s0.4-0.7,0.3-1c0-0.3-0.1-0.2,0.3-0.4c0.4-0.2,0.6-0.5,0.9-0.5c0.1,0,0.3-0.1,0.4-0.1c-0.1,0-0.2,0-0.1-0.5
				c0.2-0.7,0.3-0.9,0.6-1.1c0.3-0.2,0.3-0.5,0.6-0.5c0.1,0,0.2-0.1,0.2-0.1c0.2-0.1,0.3-0.1,0.3-0.2s0-0.2,0.1-0.2
				c0.1-0.1,0.1-0.1,0.2-0.2c0.1,0,0.1-0.1,0.2-0.1c0.2-0.2,0.4-0.3,0.3-0.3c-0.1,0.1-0.2,0.2-0.3,0.3c-0.1,0.2-0.3,0.4-0.3,0.6
				c-0.2,0.4,0.1,1,0.3,0.5c0.2-0.4,0.2-0.4,0.5-0.5c0.3-0.1,0.5-0.4,0.7-0.5c0.2-0.1,0.6-0.5,0.7-0.5c0.1,0,0.3-0.3,0.5-0.6
				c0.2-0.3,0.1-0.4-0.2-0.3c-0.2,0.1,0-0.4-0.1-0.4s-0.4,0.3-0.3,0.5c0,0.2-0.2,0.3-0.3,0.3s-0.3,0.2-0.5,0.2
				c-0.2,0-0.6,0.1-0.6-0.1s-0.1-0.4,0.1-0.6c0.1-0.2,0.1-0.1,0.2-0.3s0.5-0.9,0-0.6s-0.6,0.1-1.1,0.4c-0.4,0.3-0.6,0.7-0.9,0.7
				c-0.1,0-0.3,0.4-0.5,0.7c-0.1,0.2-0.2,0.3-0.3,0.4c0,0,0,0-0.1,0.1c-0.1,0.1-0.3,0-0.3,0s0.1-0.2,0.3-0.4
				c0.2-0.2,0.3-0.4,0.5-0.7c0.2-0.2,0.2-0.3,0.4-0.4c0.1-0.1,0.4-0.3,0.4-0.3s0.2-0.2,0.3-0.3c0.1-0.1,0-0.3,0.2-0.4
				c0.2-0.1,0.9-0.4,1.2-0.5c0.3-0.1,0.7-0.4,1-0.4c0.1,0,0.5-0.2,0.7-0.3c0.1-0.1,0.2-0.1,0.4-0.4c0.3-0.3,0.2-0.4,1-0.9
				c0,0,0,0,0,0c0.1-0.1,0.2-0.2,0.2-0.2c0-0.1,0-0.1,0-0.1s0,0,0.6-0.3c0-0.1,0-0.1,0-0.2c0-0.4,0.1-0.5,0-0.6
				c-0.1-0.1-0.4,0.2-0.4-0.1c-0.1-0.3-0.3-0.1-0.5,0.1c-0.2,0.2-0.4,0.5-0.6,0.6c-0.2,0.1-0.6,0-0.2-0.2c0.4-0.2,0.5-0.3,0.7-0.5
				c0.3-0.2,0.2-0.2,0.4-0.3c0.2-0.2,0.2-0.2-0.2-0.1c-0.4,0.1-0.3,0.1-0.6,0.1c-0.4-0.1-0.7-0.1-0.7-0.3c0-0.3,0.1,0,0.2-0.5
				c0.1-0.5-0.6-2.1-0.6-2.1s-0.3,0.7-0.7,1.2c-0.4,0.4-0.7,0.6-0.7,0.9c-0.1,0.2-0.2,0.4-0.3,0.1c-0.1-0.3-0.2-0.2-0.3-0.2
				s-0.7,0.2-0.1-0.4c0.6-0.7,0.3-0.4,0.3-0.7c0-0.2-0.2-0.2-0.5-0.1c-0.2,0.1-0.3,0-0.4-0.3c-0.1-0.2-0.3-0.3-0.7-0.1
				c-0.4,0.2-0.6,0.5-0.9,0.4c-0.2,0-0.9-0.1-0.7,0.5c0,0.6-0.2,0.7-0.2,1c0,0.2,0.1,0.4-0.1,0.5s-0.9,0.7-0.4,1.1
				c0.4,0.3,0.4,0.3,0.4,0.6c0,0.3-0.2,1.2-1.6,2.1c0,0,0,0.7,0,1.1c0.1,0.3,0.1,0.3-0.1,0.5c-0.2,0.2-0.1,0.4-0.3,0.5
				s-0.3,0.3-0.4,0s-0.2,0-0.2-0.4c0-0.4-0.2-0.2,0.1-0.6c0.3-0.4,0-0.2,0.1-0.5c0.2-0.4,0.2-0.6,0.1-0.5c-0.1,0-1.2,0.3-1.2,0.3
				s-0.2-0.3-0.5-0.2c-0.3,0.1-0.7-0.4-1.2-0.3S34,57.8,34,57.8s0.2-0.5,0.2-0.9c-0.1-0.3-0.5-0.1-0.5-0.1s0.9-2.7,2.1-3.1
				c0.2-0.1,0.6-0.7,0.2-0.5c-0.4,0.1,0.3-0.3,0.5-0.4c0.2-0.1,0.1-0.1,0.5-0.3c0.3-0.1-0.1,0.2,0.4-0.3c0.6-0.5,0.7-0.6,0.6-0.7
				c0-0.1-0.4,0.2-0.6,0.1c-0.2-0.1-0.3-0.1-0.3-0.1s0.3-0.1,0.5-0.2c0.2,0,0.4-0.1,0.5-0.2c0.1-0.1,0.1,0,0.2-0.3
				c0-0.3,0-0.3,0.3-0.4c0.2-0.1,0.3-0.2,0.5-0.2c0.3,0,0-0.1,0.4-0.2c0.4-0.1,0,0,0.5-0.4c0.5-0.4,0.9-0.4,0.7-0.7
				c-0.1-0.3-0.6,0-0.2-0.4c0.4-0.4,0.6-0.4,0.5-0.6c-0.1-0.2-0.5-0.3-0.6-0.2c-0.1,0-0.3-0.1-0.5,0.2c-0.2,0.3-0.2,0.6-0.3,0.9
				s-0.3,0.1-0.4,0.4c-0.2,0.3-0.3,0.3-0.5,0.5c-0.2,0.2,0,0.2-0.2,0.2c-0.1,0-0.4-0.2-0.1-0.3s0.6-0.3,0.3-0.5
				c-0.3-0.3-0.5-0.4-0.7,0c-0.2,0.3-0.3,0.6-0.3,0.4c0-0.1-0.1-0.9-0.2-0.5c-0.1,0.3-0.5,0.4-0.6,0.7c-0.2,0.3-0.5,0.4-0.6,0.6
				c-0.1,0.2-0.3,0.4-0.4,0.6c-0.1,0.2,0,0.4-0.1,0.4c-0.1,0-0.2,0.4-0.3,0c-0.1-0.3-0.2-0.4-0.4-0.3c-0.2,0.1-0.5,0.2-0.6,0.2
				c-0.1,0-0.2,0.1-0.4,0.2c-0.2,0.2-0.6,0.4-0.6,0.4s-0.2-0.4-0.6-0.3s-0.7,0.2-0.9,0.4c-0.1,0.2-0.3,0.4-0.3,0.6
				c0,0.2,0,0.5-0.1,0.4c-0.1,0-0.1-0.2-0.3-0.4c-0.2-0.2-0.1-0.2-0.4-0.1s-1.5,0.6-1.5,0.6s-0.2-0.1,0.2-0.3s0.5-0.7-0.2-0.5
				c-0.7,0.2-0.8,0.4-1,0.3c-0.7,1.4-1.3,2.8-1.8,4.3c-0.1,0.2-0.2,0.5-0.3,0.7c-0.1,0.4-0.2,0.7-0.4,1.1c-0.2,0.6-0.4,1.2-0.6,1.9
				c0,0.2-0.1,0.3-0.1,0.5c-0.2,0.8-0.5,1.7-0.6,2.5c0,0.1,0,0.1,0,0.2c-0.2,0.9-0.4,1.7-0.5,2.6c0,0.1,0,0.3-0.1,0.4
				c-0.1,0.6-0.2,1.2-0.3,1.8C23.1,70.5,23,72.7,23,75c0,0.3,0,0.6,0,0.8C23.1,76,23.1,76.1,23.2,76.4z"/>
			<path fill="#89BE49" d="M47.7,55.9c0,0-0.1,0.1-0.2,0.2c0.6-0.2,0.8-0.4,0.8-0.6c-0.6,0.3-0.6,0.3-0.6,0.3S47.7,55.8,47.7,55.9z"
				/>
			<path fill="#89BE49" d="M99.2,49.7C99.2,49.8,99.3,49.8,99.2,49.7L99.2,49.7z"/>
			<path fill="#89BE49" d="M111,38.3c-0.2,0-0.4,0-0.6,0c0,0,0.2-0.2,0.2-0.4c0-0.3-0.4-0.1-0.5-0.1s-0.4,0.2-0.4,0.2
				s-0.4,0-0.6,0.2c-0.2,0.1-0.5,0.6-0.5,0.6c0,0.1-0.1,0.3-0.1,0.4c0,0-0.7,0.1-1-0.1c-0.2-0.2-0.5-0.5,0.1-0.5
				c0.5,0-0.1-0.5-0.6-0.6c-0.4,0-0.6,0-0.4,0.5c0.1,0.5,0.6,0.9,0.6,1.1c0,0.3-0.2,0.1-0.2,0.1s-0.2-0.3-0.5-0.3
				c-0.3,0-1,0.4-1.1,0.6c-0.1,0.2,0.5,0.6,0.3,0.7c-0.2,0.1-0.9,0-1.3-0.3c-0.3-0.3-0.9,0.1-0.2,0.4c0.6,0.3,0.4,0.7,0.2,0.4
				c-0.3-0.3-0.5-0.4-0.7-0.5c-0.2,0-0.5-0.1-0.5-0.1s0.1-0.2-0.2-0.5c-0.3-0.3-0.1-0.6-0.1-0.6s-0.4-0.1-0.9-0.4
				c-0.3-0.3,0.1-0.1,0.3-0.1c0.2,0,1,0.4,1.6,0.4c0.6,0.1,1.6-0.1,1.6-0.5s-0.4-0.9-0.9-1c-0.5-0.1-0.7-0.1-1.2-0.4
				c-0.3-0.4-1-0.5-1.5-0.5s-0.7-0.1-0.9-0.2c-0.2-0.1-1,0.1-1,0.1s-0.3-0.4-0.2-0.4c0.2,0,0.2,0,0.2,0s-0.2,0-0.4-0.2
				c-0.2-0.1-0.6-0.2-0.6-0.2c0,0.1,0,0.1-0.1,0.2c0-0.2-0.1-0.3-0.1-0.5c-0.1,0.1-0.2,0.2-0.4,0.3c-0.1,0.1-0.2,0.3-0.3,0.4
				c0-0.1,0-0.3,0-0.4c-0.1,0.1-0.3,0.3-0.4,0.4c0-0.2,0.1-0.4,0.1-0.6c0,0-0.2-0.1-0.5,0c-0.3,0.1-0.5,0.3-0.4,0.5
				c0,0.1-0.2,0-0.3,0s-0.5,0.1-0.5,0.1s0,0.1-0.3,0.1s-0.5-0.2-0.5,0c0,0.2-0.4,0.3-0.5,0.3s-0.1,0.5-0.1,0.5s-0.6,0.1-0.7,0
				s-0.3,0.1-0.3,0.4c0,0.3-0.2,0.3-0.3,0.4c-0.1,0-0.4,0.4-0.4,0.4c0,0.2-0.1,0.3-0.1,0.5c0,0-0.1,0.5-0.2,0.5
				c-0.2,0-0.4,0.5-0.6,0.5s-0.3,0.5-0.4,0.5c-0.2,0-0.2,0-0.4,0c-0.1,0-0.7,0-0.7,0s0,0.5-0.1,0.6c-0.1,0.1-0.2,0.1-0.5,0.2
				c-0.3,0.1-0.5,0.1-0.5,0.2s0.2,0.4,0.2,0.4c0.3,0,0.5,0.1,0.9,0.1c-0.3,0-0.6,0-1.1,0c0.1,0.2,0.1,0.5,0.1,0.7
				c0.2-0.1,0.4-0.2,0.6-0.2c-0.2,0.2-0.3,0.4-0.5,0.7c0.1,0.2,0.2,0.4,0.4,0.6c0,0,0,0.3,0.7,0.2c0.9-0.1,0.9-0.4,1.1-0.4
				c0.2,0,0.4-0.7,0.4-0.4c0.1,0.3,0.1,0.3,0.3,0.3H92c0.4,0-0.5,0.2,0,0.4c0.5,0.2,0.3,0.2,0.6,0.9c0.3,0.6,0.1,0.7,0.2,0.9
				c0,0.2,0.2,0.4,0.4,0.4c0.2,0,0.3-0.1,0.4-0.2c0-0.2,0.3-0.1,0.6-0.1s0.5,0,0.5-0.6c-0.1-0.5,0-1.1,0-1.1s1.1-0.3,1-0.9
				c-0.2-0.5-0.9-0.3-1.1-1.3c-0.2-1,0.6-1,1.1-1.3s0.7-0.6,0.7-0.6s-0.4-0.1-0.2-0.3s0.2-0.4,0.4-0.4c0.2,0,0.6-0.1,0.7-0.1
				c0,0,0.1,0,0.2,0c0.3,0,0.7,0.1,0.6,0.3c-0.1,0.2,0,0.4-0.1,0.4s-1,0.9-1,0.9S96.8,41.4,97,42c0.2,0.5,0.3,1.2,0.3,1.2
				s0,0.2,0.3,0.2c0.2,0.1,0.4,0.3,0.6,0.3c0.2,0,0.6,0,0.7,0s0.5-0.1,0.6-0.1c0.1,0,0.3,0.1,0.4,0c0.1,0,0.3-0.3,0.3-0.3
				c0.1,0,0.1,0,0.2,0c0.1,0,0.2,0,0.3,0s0.3,0.1,0.4,0.1c-0.1,0.1-0.3,0.2-0.4,0.3s-0.1,0.1-0.2,0.2c-0.5,0-1,0-1.5,0
				c0,0-1.1,0.4-0.3,0.9c0.1,0.1,0.2,0.1,0.3,0.2c0.4,0.3,0.3,0.7,0.1,0.7c-0.3,0-0.4-0.2-0.4-0.2s-0.4-0.6-1-0.5
				c-0.5,0.2-0.4,0.2-0.1,0.6c0.3,0.4,0,0.3,0.2,0.5c0.1,0.2-0.1,0.3,0.1,0.5c0.1,0.1,0,0.1-0.2,0.2s-0.4,0.1-0.2,0.2
				c0.4,0.1-0.9,0.1-0.9,0.1c-0.1-0.1-0.2-0.2-0.3-0.3c0,0-0.6,0.1-1,0.2c-0.3,0.1-1,0.3-1,0.3h-0.1c-0.1,0-0.2-0.1-0.3-0.1
				c0,0-0.4-0.3-0.5-0.2c-0.9,0.1-1.2,0.2-1.3,0.2c-0.2,0-0.4-0.1-0.5-0.2s-0.4,0-0.4-0.4c0-0.4,0.1-0.3,0.4-0.5
				c0.3-0.2,0.4-0.2,0.2-0.3c-0.1-0.2-0.5,0-0.4-0.3s0.3-0.5,0.1-0.6c-0.2,0-0.4,0-0.5,0.2c-0.1,0.2-0.3,0.3-0.3,0.3s-0.5,0-0.5,0.2
				c0,0.2,0,0.4,0,0.6c0.1,0.2,0.5,0.7,0.5,0.7s0,0.4-0.2,0.3c-0.2,0,0.1,0-0.7,0.2h-0.1c-1,0.2-1-0.1-1.3,0.4
				c-0.2,0.5,0,0.6-0.6,0.7h-0.1c-0.5,0.1-0.3,0.2-0.4,0.3s-0.3,0.1-0.4,0.1c0,0,0-0.1-0.1-0.2c-0.1-0.1-0.3-0.1-0.4-0.1l-0.1,0.1
				c0,0.2,0,0.5-0.2,0.5c-0.2,0-0.3,0.3-0.3,0.3S85.3,50,85,49.7s-0.4-0.2-0.2,0.1c0.1,0.3,0.2,0.4-0.1,0.4c-0.3,0-0.6,0-0.6,0
				s-0.6-0.2-1-0.1c0.1,0.4,0.1,0.9,0.1,1.1c0,0.2,0.3-0.2,0.9,0.2c0.5,0.4,1,0.9,1,1c0,0.1,0.2,0.4,0.2,0.7s0.2,1.2-0.1,1.2
				c-0.1,0-0.2,0-0.3,0c-0.2,0-0.4,0.1-0.4,0.1c-1.1-0.2-2.2-0.4-3.4-0.6c0,0-1.5,0.1-1,0.9c0,0,0,0.1,0,0.2c0,0.2,0.1,0.5,0.1,0.9
				c0,0.6-0.4,0.9-0.5,1.1c-0.1,0.2-0.3,0.6-0.1,0.6c0.2,0,0.3,1.1,0.3,1.1s-0.1,0.1,0.5,0.1c0.5,0,0.4,0.1,0.5,0.1c0,0,0,0,0.1,0
				c0.2-0.1,0.6-0.2,0.9,0.3c0.2,0.4,0.2,0.5,0.5,0.5c0.3,0,0.1-0.4,0.5-0.4c0.4,0,0.5-0.1,1.1-0.1s0.9,0,0.9,0s0.3-0.4,0.5-0.4
				c0.2,0.1,0.2-0.7,0.5-0.7c0.3,0-0.2-0.7,0.2-1.2c0.5-0.3,0.5-0.7,1-0.7c0.3,0,0.7-0.1,0.7-0.1c0.1-0.3,0.1-0.5,0.2-0.9
				c0,0-0.2-0.5,0.4-0.5c0.5,0,1.2,0.4,1.6,0.4c0.4-0.1,0.5-0.3,0.6-0.5c0,0,0-0.1,0.1-0.1c0.1-0.2,0-0.4,0.6-0.2
				c0.7,0.2,1,0.2,1.1,0.7c0,0.5,0,0.3,0.4,0.7c0.5,0.4,0.9,0.7,1.3,0.9c0.4,0.1,0.7,0,1.3,0.7c0.4,0.7,1,1,0.6,1.1
				c-0.4,0.1,0.1,0.3-0.5,0.3c-0.6,0-0.6,0-1.1,0s-0.6,0.2-0.4,0.3c0.1,0.2,1.5,0.7,1.5,0.7c0.1-0.2,0.2-0.4,0.2-0.7
				c0,0,0.4,0,0.6-0.3c0.1-0.3,0.3-0.5,0.5-0.5s-0.3-0.5-0.4-0.7c-0.2-0.1,0.2-0.6,0.6,0c0.4,0.5,1,0.2,0.1-0.4
				c-0.9-0.6-1.2-0.5-1.3-0.6c-0.1-0.1-0.2-0.3-0.2-0.3c-0.4,0.1-0.6,0.1-0.9,0c-0.1-0.1-0.2-0.3-0.2-0.4c0,0-0.1-0.2-0.5-0.5
				s-0.6-0.5-0.6-0.5s-0.3-0.7,0.1-0.7c0.3,0,0.3-0.1,0.4-0.1c0.1,0,0.1,0.1,0.2,0.2c0.3,0.4,0.6,0.6,0.7,0.7s0.3,0.5,0.6,0.6
				c0.3,0.1,0.4,0.3,0.6,0.4c0.2,0,0.5,0.1,0.5,0.1s0,0,0.1,0c0.3,0.2,0.5,0.4,0.9,0.6c0,0,0,0.9,0.1,1c0.1,0.1,0.3,0.9,0.5,0.7h0.1
				c0.1,0,0.2,0.1,0.2,0.3c0.1,0.2,0.2,0.6,0.2,0.6c0.1,0.1,0.2,0.3,0.3,0.4c0,0,0.3,0.2,0.4,0.2c0.2,0,0.6,0.1,0.6,0.1
				c0-0.1,0-0.2-0.1-0.4c0.1,0,0.1,0,0.2,0c-0.1-0.1-0.2-0.3-0.3-0.4c0.2,0.1,0.3,0.2,0.5,0.2c0.1-0.1,0.1-0.1,0.2-0.2
				c-0.2-0.2-0.4-0.4-0.6-0.7c-0.1-0.2-0.2-0.4-0.3-0.5c0,0-0.1-0.4,0.1-0.2c0.2,0.3,0.2,0.2,0.4-0.1c0.2-0.2-0.2-0.2,0.2-0.2
				c0.3-0.1,0.5-0.2,0.6-0.1c0.1,0.2,0.5,0.3,0.6,0.3c0,0,0,0.1,0,0.4c0,0.5,0.1,0.7,0.2,1c0.1,0.2,0.3,0.5,0.4,0.5
				c0.2,0,0.3,0.1,0.4,0.2c0.1,0.2,0.3,0.5,0.3,0.5c0.2,0,0.5,0.1,0.7,0.1c0,0,0.2,0.2,0.3,0c0.1-0.1,0.2-0.3,0.2-0.3
				s0.3-0.2,0.6,0.1s0.3,0.3,0.7,0.3c0.4,0,0.2-0.5,0.5-0.4c0.3,0.1,0.6,0.1,0.9,0.1c0.1,0,0.2,0,0.2,0.1c0,0,0,0.1,0,0.2
				c0,0.2,0.1,1.1,0.1,1.3c0,0.2,0,0.3-0.2,0.5c-0.2,0.1-0.4,0.2-0.4,0.5c0,0.3,0.1,0.5,0.1,0.7c0,0.2,0,0.9,0.2,1.4
				c0.1,0.3,0.2,0.6,0.3,0.9c0.3,0.5,0.2,0.2,0.7,1c0.6,0.7,0.3,1.1,0.7,1.5c0.4,0.4,0.6,0.2,1,1.1c0,0-0.1,1.2,0.3,1.5
				c0.5,0.3,0.6,0.2,1,1c0.3,0.7,0.6,0.7,1,1.1c0.1,0.1,0.2,0.2,0.2,0.3s0,0.2,0,0.4c0,0.3-0.1,0.5,0,1.1c0.1,0.4,0.1,0.6,0.2,0.9
				c0.2,0.2,0.1,0.4,0.7,0.2c0.5-0.2,0.1-0.4,0.7-0.4c0.6,0,1.4-0.3,1.4-0.3s0-0.5,0.5-0.5c0.4,0,0.5-0.2,0.9-0.4
				c0.3-0.2,0.6-0.2,0.6-0.4c0-0.2,0.2-0.5,0.3-0.5s0.1,0,0.4,0s0.5,0,0.7,0c0.2,0-0.3-0.5,0.1-0.5c0.4,0,0.6,0.1,0.6-0.2
				s0.5-0.4,0.5-0.4s0-0.3,0-0.4c0-0.1-0.2-0.5,0.1-0.5c0.3,0,0.1,0,0.5-0.3s0.4-0.7,0.3-1s-0.1-0.1-0.2-0.3
				c-0.1-0.1-0.3-0.4-0.4-0.4c-0.1,0-0.4,0-0.6-0.1c-0.2-0.1-0.4-0.3-0.5-0.5c0,0,0-0.1-0.1-0.2c-0.1-0.3-0.1-0.6-0.1-0.6
				s-0.7,1-1,1.1c-0.3,0.1-1,0-1.2,0.1h-0.1c-0.2-0.1-0.7-0.6-1-1.1c-0.2-0.4,0.1-0.4-0.3-0.9c-0.3-0.3-0.6-0.7-0.9-1.1
				c-0.1-0.1-0.1-0.2-0.1-0.3c0-0.2,0.6-1.2,1-0.6c0.3,0.5,0.6,1.3,1.4,1.5c0,0,0.3,0.6,0.9,0.7s1.2-0.5,1.4-0.3
				c0.2,0.2,0.2,0.9,0.9,1s1.2,0.3,1.6,0.4c0.1,0,0.2,0,0.4,0c0.2,0,0.6-0.1,1.3,0c1.1,0,1.1-0.3,1.3,0.1c0.2,0.4,0.1,0.7,0.7,0.7
				c0.1,0,0.1,0,0.2,0c0,0.4-0.1,0.9,0.6,0.9c-1.3-12.1-6.8-22.9-15-31.1c-0.2,0-0.4-0.1-0.5-0.1C111.1,38.1,111.1,38.2,111,38.3z
				 M99.2,49.7C99.3,49.8,99.2,49.8,99.2,49.7c0.1,0.1,0.1,0.1,0.1,0.1S99.3,49.8,99.2,49.7z M100.9,46.4
				C100.9,46.4,101,46.4,100.9,46.4C101,46.4,100.9,46.4,100.9,46.4z M117.6,71.6C117.6,71.6,117.6,71.6,117.6,71.6
				C117.6,71.6,117.6,71.6,117.6,71.6z M124.1,60c-0.1,0-0.1,0-0.2,0C124,60,124,60,124.1,60z"/>
			<path fill="#89BE49" d="M86.4,48.7c0.2-0.3,0.4-0.2,0.5-0.5c0.1-0.3,0.2-0.3,0-0.4c-0.3-0.1-0.5,0.2-0.9,0
				c-0.2-0.2,0.1-0.1-0.1-0.5c-0.2-0.4,0-0.4-0.3-0.7s-0.5-0.1-0.5-0.1s0.2-0.6-0.3-0.9c-0.6-0.2-0.9-0.1-0.9-0.1s0-0.1,0.5-0.3
				c0.5-0.2,0.5-0.6,0.5-0.6s-0.6-0.2-1-0.2c-0.2,0-0.4,0.2-0.5,0.1c0-0.1,0-0.3,0.3-0.4c0.2-0.1,0.4-0.3,0.4-0.3
				c-0.3-0.1-0.7-0.1-1.1-0.2c0,0-0.2,0.3-0.5,0.6c-0.3,0.2-0.3,0.4-0.3,0.6s0.5,0.3,0.5,0.3s-0.4,0.3-0.2,0.3c0.2,0,0.5,0,0.6,0
				c0,0,0,0,0,0c0,0,0,0,0,0c-0.2,0-0.5,0.2-0.5,0.2c0.1,0,0.3,0,0.4,0c0,0-0.5,0.3-0.4,0.4c0.1,0,0.7-0.1,0.7-0.1s0.3-0.1,0.3,0.2
				c0,0.3,0.3,0.6,0.3,0.6s0.5,0.1-0.1,0.3c-0.6,0.2-0.5,0.2-0.7,0.2c-0.2,0,0.4,0.4,0.2,0.5c-0.2,0.1-0.7-0.1-0.7,0
				s0.2,0.3,0.4,0.3c0.2,0,0.6,0.4,1-0.1c0,0-0.2,0.5-0.6,0.4s-0.9,0.1-1,0.6c0,0,0.3-0.1,0.9-0.1s0.5-0.1,0.9,0c0.3,0,0.3,0,0.7,0
				s0.7,0,1,0c0.1,0,0.3,0,0.5-0.1C86.3,48.9,86.2,48.9,86.4,48.7z"/>
			<path fill="#89BE49" d="M86.4,48.8C86.4,48.8,86.4,48.8,86.4,48.8L86.4,48.8C86.4,48.8,86.4,48.8,86.4,48.8z"/>
			<path fill="#89BE49" d="M91.5,56.2c0.3,0,0.4-0.2,0.3-0.5c0-0.3-0.5-0.4-0.6-0.2C91.3,55.4,91.2,56.1,91.5,56.2z"/>
			<path fill="#89BE49" d="M23.3,78.9c0.3,0.1,0.5,0.2,0.9,0.4c0,0,0.5,0.6,0.5,0.2c0-0.5-0.2-0.7-0.5-0.9c-0.3-0.1-0.3-0.6-0.5-1
				c-0.2-0.4-0.5-0.4-0.6-0.7c0,0.4,0,0.7,0,1.1c0,0.1,0.1,0.1,0.1,0.3C23.2,78.4,23.3,78.9,23.3,78.9z"/>
			<path fill="#89BE49" d="M39.4,43.6c-0.2,0.1,0.1,0.7,0.2,0.6c0.1,0,0.4-0.2,0.7-0.3c0.3-0.1,0.6-0.3,1-0.4c0.3-0.1,0.6-0.2,1-0.3
				c0.2-0.1,0.4-0.3,1-0.6c0.5-0.3,0.5-0.9,0.5-0.9s-1,0.3-1.1,0.4c-0.1,0-1.1,0.6-2.1,1.1c-1.1,0.4,0.2-0.5,0.2-0.5S42,42,42.1,42
				s0.9-0.4,0.9-0.4c0.4-0.2,0.9-0.3,1.4-0.5c0,0,0.5-0.2,0.3-0.3c-0.1-0.1-0.3-0.4,0.1-0.5c0.4-0.2,0.7-0.4,0.7-0.4
				c0-0.1,0.1-0.2,0.1-0.3c0,0,1.2-0.6,1.3-0.7s-0.4,0.2-0.6,0.3c-0.2,0.1,0.1-0.7,0.3-1c0.2-0.2,1.5-0.6,1.9-0.9
				c0.3-0.1,0.6-0.3,0.9-0.4c0.3-0.2,0.5-0.9,0.9-1c0.3-0.1,0.9-0.6,1.2-0.7c0.3-0.2,1.2-0.7,1.2-0.7c0.2-0.2,0.5-0.3,0.7-0.4
				c0,0-0.4-0.3-1.1-0.1c-0.5,0.2-0.6,0.3-1.2,0.4c-0.4,0.2-0.5,0.2-1.2,0.5c-0.5,0.2-0.9,0.3-1.5,0.6s-0.5,0.2-1.5,0.6
				c-1,0.4-0.9,0.4-1.9,1.2c-1,0.7-1.4,0.7-1.8,0.9c-0.4,0.2-0.5,0.6-0.5,0.6c0,0.1,0,0.3,0.1,0.4c0,0.1,0.1,0.2,0.1,0.3
				c0,0-0.3,0.1-0.4,0c-0.1-0.1-0.5,0-0.5,0s-0.3,0.2-0.4,0.3c-0.1,0.1-0.6,0.3-0.9,0.4c-0.2,0.1-0.4,0.7-0.4,0.7
				c0,0.2,0.1,0.3,0.1,0.5c0,0,0.4,0.2,0.5,0.2c0.1-0.1,0.5-0.2,0.7-0.3c0.2-0.1,0.6-0.4,0.7-0.4s0.5,0,0.5,0s0,0.2-0.1,0.3
				c-0.1,0-0.3,0-0.3,0s-0.3,0.1-0.5,0.2c-0.1,0.1-0.3,0.4-0.5,0.5c-0.2,0.1-0.4,0.2-0.5,0.2c-0.1,0.1-0.2,0.3-0.5,0.4
				c-0.2,0.1-0.7,0.1-1.1,0.1s-0.4,0.6-0.4,0.6c0.2-0.1,0.4-0.2,0.7-0.3C39.5,42.8,39.6,43.5,39.4,43.6z"/>
			<path fill="#89BE49" d="M91.3,57.9c0.1,0,0.2,0,0.3,0c0-0.1,0.1-0.1,0.1-0.2c0.1,0,0.2,0,0.3,0c0,0,0.1-1,0.1-1.1
				c0,0-0.2-0.2-0.2-0.3c-0.1-0.1-0.3,0-0.3,0c-0.1,0-0.2,0.1-0.2,0.1c-0.1,0-0.2,0.1-0.2,0.1c-0.1,0.2,0,0.3,0,0.4
				C91.2,57.3,91.2,57.6,91.3,57.9z"/>
			<path fill="#89BE49" d="M29.7,51.2c0,0.1,0.1,0.2,0.1,0.3c0,0,0.2-0.1,1-0.3c0.6-0.2,1.2-0.7,1.4-1c0.1-0.2,0.2,0.1,0.7,0.1
				s0.4-0.1,1-0.3s0-0.3,0.1-0.4c0.1,0,0.6-0.2,0.9-0.5c0.2-0.3-1,0.1-1-0.5s0.5-1.6,0.5-1.6c0.1,0,0.2-0.2,0.2-0.2
				c-0.2,0.1-0.5,0.2-0.7,0.3c0,0.2,0.1,0.4,0.1,0.6c0,0-0.2-0.2-0.4-0.2c-0.3,0-0.7,0.6-0.6,1.1c0-0.1-0.1-0.3-0.3-0.2
				c-0.1,0.2,0-0.4-0.1-0.2s-0.4,0.2-0.7,0.2c-0.3-0.1-0.3,0.1-0.7,0.2c-0.1,0-0.1,0-0.2,0.1c0,0,0,0,0,0c-0.1,0-0.4,0.2-0.9,0.5
				c-0.1,0.2-0.2,0.4-0.3,0.6c0.1,0.1,0.1,0.1-0.1,0.1c0,0,0,0,0,0c-0.1,0.1-0.1,0.2-0.2,0.3c0.5-0.1,1.3-0.2,1.3-0.2
				s-0.4,0.1-1,0.3c-0.2,0-0.4,0.1-0.6,0.2c-0.1,0.3-0.3,0.5-0.4,0.8C29.1,51.5,29.7,51.2,29.7,51.2z"/>
			<path fill="#89BE49" d="M29.9,49.1c0.4-0.3,0.8-0.5,0.9-0.5c0,0,0,0,0,0c-0.3,0.1-0.4,0.2-0.7,0.3C30,48.9,29.9,49,29.9,49.1z"/>
			<path fill="#89BE49" d="M80.3,48.3c0.4,0.1,0.4,0,0.9-0.1s0.4-0.1,1-0.2s0.1-0.9,0.3-1.1c0,0,0.3,0.2-0.1-0.1
				c-0.3-0.3-0.5-0.4,0.2-0.3c0.9,0.1,0-0.3-0.2-0.5c-0.2-0.1-0.3-0.1-0.9-0.1s-0.3,0.5-0.3,0.5s-0.2,0.1-0.5-0.1
				C80.2,46,80,46.1,80,46.7c0,0.5,0.1,0.3,0.4,0.3c0.3,0,0,0.2-0.3,0.2s-0.4,0.3-0.4,0.5C79.7,48.2,79.8,48.2,80.3,48.3z"/>
			<path fill="#89BE49" d="M90.9,31.3c0.3,0,0.5-0.4,0.9-0.4s0,0.4,0,0.4c-1,0.2-1,0.1-0.2,0.6c0.7,0.5,0.5,0,1,0.2
				c0.4,0.2,0.2,0,0.5-0.6c0.3-0.6,0.1-0.4,0.6-0.5s0.4,0.4,0.6,0.5c0,0,0.5,0.2,1,0.2c0.5,0,0.6-0.2,0.3-0.2c-0.2,0-0.6,0-1.1-0.4
				c-0.4-0.4-1.6-0.6-1.6-0.6s0.3,0,0.5,0.1c0.2,0.1,0.9,0.1,1.3,0.1s0.5,0,1.1-0.2c0.5-0.2,0.2-0.5,0.2-0.5s-1,0-1.4,0
				s-0.9,0-1.5,0c-0.5,0-0.7,0.2-1.6,0.2c-0.9,0-1,0-1.4,0c-0.4,0-0.4,0.3-0.3,0.7C90.1,31.3,90.6,31.3,90.9,31.3z"/>
		</g>
		<path opacity="0.15" fill="#FFFFFF" enable-background="new    " d="M126.7,70.2c-0.1-0.1-0.1-0.7-0.1-1c-0.1-0.6-0.1-1.1-0.2-1.7
			c-0.2-1.3-0.4-2.5-0.7-3.8c-0.5-2.3-1.2-4.6-2-6.8c-1.7-4.7-4.1-9-7.1-13c-5.3-7.1-12.4-12.9-20.6-16.5c-16.4-7.3-36-5.5-50.8,4.8
			C38.9,36.8,33.2,43,29.5,49.8c-2,3.7-3.7,7.9-4.8,12.1c-0.5,2.1-1.2,4.4-1.3,6.6c0,2.2,0.7,4.6,1.5,6.6c3.8,9,13.1,14.7,21.8,18.1
			c10,3.9,20.6,5.4,31.3,5.2c10.5-0.3,21.3-1.5,31.1-5.2c7.4-2.8,15.2-7.5,17.5-15.6C127.3,75.3,127,72.6,126.7,70.2
			C126.7,70.2,126.9,71.8,126.7,70.2z"/>
	</g>
</g>
</svg>
